<svg xmlns="http://www.w3.org/2000/svg" xmlns:xlink="http://www.w3.org/1999/xlink" preserveAspectRatio="xMidYMid" width="73" height="73" viewBox="0 0 73 73">
  <defs>
    <style>

      .cls-2 {
        fill: #eb3344;
      }
    </style>
  </defs>
  <path d="M56.622,22.150 C56.622,22.150 32.132,46.639 32.132,46.639 C32.132,46.639 16.378,30.729 16.378,30.729 C16.378,30.729 13.570,33.536 13.570,33.536 C13.570,33.536 32.132,52.254 32.132,52.254 C32.132,52.254 59.429,24.957 59.429,24.957 C59.429,24.957 56.622,22.150 56.622,22.150 ZM36.500,3.900 C54.438,3.900 69.100,18.562 69.100,36.500 C69.100,54.438 54.438,69.100 36.500,69.100 C18.562,69.100 3.900,54.438 3.900,36.500 C3.900,18.562 18.562,3.900 36.500,3.900 ZM36.500,-0.000 C16.378,-0.000 -0.000,16.378 -0.000,36.500 C-0.000,56.622 16.378,73.000 36.500,73.000 C56.622,73.000 73.000,56.622 73.000,36.500 C73.000,16.378 56.622,-0.000 36.500,-0.000 Z" id="path-1" class="cls-2" fill-rule="evenodd"/>
</svg>
