<svg xmlns="http://www.w3.org/2000/svg" xmlns:xlink="http://www.w3.org/1999/xlink" width="17" height="17" viewBox="0 0 17 17"><defs><path id="atpxa" d="M367.85 6207.27l-.5.15c-.06.02-.1.1-.08.17l.58 2c.02.05.07.1.13.1l.03-.01.5-.15c.07-.02.1-.1.09-.17l-.59-2a.13.13 0 0 0-.12-.1.1.1 0 0 0-.04.01zm.42.02l.58 2a.4.4 0 0 1-.26.5l-.5.14a.39.39 0 0 1-.49-.26l-.58-2a.4.4 0 0 1 .26-.5l.5-.15a.38.38 0 0 1 .1-.02.4.4 0 0 1 .39.29zm-3.17 1.18l-.42.32a.13.13 0 0 0-.05.08c0 .04 0 .07.02.1l1.22 1.68c.03.03.07.05.1.05.04 0 .06 0 .08-.02l.42-.32a.13.13 0 0 0 .05-.09c0-.03 0-.07-.02-.1l-1.22-1.67a.13.13 0 0 0-.18-.03zm.39-.13l1.22 1.67a.4.4 0 0 1-.08.56l-.42.32a.39.39 0 0 1-.55-.08l-1.22-1.68a.4.4 0 0 1-.07-.3.4.4 0 0 1 .15-.26l.42-.31a.4.4 0 0 1 .55.08zm-2.58 2.22l-.29.44a.13.13 0 0 0 .04.18l1.7 1.15c.03.02.05.02.08.02.04 0 .08-.02.1-.05l.3-.45a.14.14 0 0 0-.04-.18l-1.72-1.15a.14.14 0 0 0-.07-.02.13.13 0 0 0-.1.06zm.32-.26l1.71 1.15a.4.4 0 0 1 .11.55l-.28.44a.39.39 0 0 1-.55.12l-1.7-1.15a.4.4 0 0 1-.18-.26.4.4 0 0 1 .06-.3l.29-.44a.4.4 0 0 1 .54-.11zm-1.54 2.89c-.08 0-.13.04-.14.1l-.12.5c-.02.08.03.15.1.17l2.02.48c.06 0 .11-.04.12-.1l.12-.51a.13.13 0 0 0-.1-.16l-1.99-.48zm.08-.26l1.99.48a.4.4 0 0 1 .29.48l-.12.52a.4.4 0 0 1-.47.3l-2-.5a.4.4 0 0 1-.29-.47l.12-.52a.4.4 0 0 1 .48-.3zm5.22-.7l-.53.55a.16.16 0 0 0-.01.2l2.1 2.4c.19-.47.56-.84 1.02-1.03l-2.38-2.13a.15.15 0 0 0-.1-.04.15.15 0 0 0-.1.05zm3.22 2.26c-.8 0-1.46.63-1.53 1.43a1.56 1.56 0 0 0 1.53 1.7c.8 0 1.46-.64 1.53-1.44a1.56 1.56 0 0 0-1.52-1.7h-.01zm-2.85-2.47l2.5 2.24a1.9 1.9 0 0 1 .5-.03c.98.08 1.72.96 1.64 1.97a1.82 1.82 0 0 1-1.94 1.67 1.82 1.82 0 0 1-1.64-1.97c0-.08.03-.15.04-.23l-2.2-2.51a.43.43 0 0 1 0-.57l.54-.55a.4.4 0 0 1 .3-.12c.09 0 .18.03.26.1zm10.64 4.07a7.89 7.89 0 0 1-7.8 7.91h-.04a7.88 7.88 0 0 1-7.75-7.68l-1.18 2.24-.23-.13 1.4-2.64.24.22h.02v.02l2 1.75-.17.2-1.81-1.59a7.6 7.6 0 0 0 7.48 7.34h.04a7.62 7.62 0 0 0 7.54-7.64 7.62 7.62 0 0 0-7.5-7.73v-.26c4.3.02 7.78 3.6 7.76 7.99z"/></defs><g><g transform="translate(-361 -6207)"><use fill="#0b52ce" xlink:href="#atpxa"/></g></g></svg>