<svg xmlns="http://www.w3.org/2000/svg" xmlns:xlink="http://www.w3.org/1999/xlink" width="19" height="19" viewBox="0 0 19 19"><defs><path id="juwla" d="M368.5 6478.45c-1.77 0-2.67.6-2.67 1.78h.6c0-.55.23-1.18 2.07-1.18 1.26 0 2.08.7 2.08 1.78 0 .82-1.17 1.59-1.62 1.81-.05.03-1.35.7-1.35 2.64v.3h.6v-.3c0-1.56.98-2.09 1.02-2.1.08-.05 1.94-1 1.94-2.35 0-1.4-1.1-2.38-2.67-2.38zm-.9 8.32v1.18h.6v-1.18zm.9-12.18c2.38 0 4.62.93 6.3 2.61a8.85 8.85 0 0 1 2.6 6.3c0 2.38-.92 4.62-2.6 6.3a8.85 8.85 0 0 1-6.3 2.6 8.85 8.85 0 0 1-6.3-2.6 8.85 8.85 0 0 1-2.6-6.3c0-2.38.92-4.62 2.6-6.3a8.85 8.85 0 0 1 6.3-2.6zm0-.59c-2.54 0-4.92.99-6.72 2.78a9.44 9.44 0 0 0-2.78 6.72c0 2.54.99 4.92 2.78 6.72a9.44 9.44 0 0 0 6.72 2.78c2.54 0 4.92-.99 6.72-2.78a9.43 9.43 0 0 0 2.78-6.72c0-2.54-.99-4.92-2.78-6.72a9.44 9.44 0 0 0-6.72-2.78z"/></defs><g><g transform="translate(-359 -6474)"><use fill="#0b52ce" xlink:href="#juwla"/></g></g></svg>