<svg xmlns="http://www.w3.org/2000/svg" xmlns:xlink="http://www.w3.org/1999/xlink" width="22" height="23" viewBox="0 0 22 23"><defs><path id="j150a" d="M1128.72 3283.77c.42.03.75.14.97.4.25.28.43.73.5 1.28v2.48a.3.3 0 0 0 0 .02.52.52 0 0 0 0 .02v.2c-.2-.1-.43-.19-.66-.23-.24-.04-.5-.06-.74-.06l-.81.03-.48.01c-.34 0-.65-.02-.92-.1-.4-.1-.72-.3-.99-.75a.37.37 0 0 0-.32-.17h-.02a.37.37 0 0 0-.33.26s-.08.13-.19.26a4.9 4.9 0 0 1-.87.77v-.22a.29.29 0 0 0 0-.02.47.47 0 0 0 0-.02v-1.72c0-.88.7-1.58 1.6-1.58h1.97c.34-.02.68-.12.97-.32.17-.12.22-.35.32-.54zm-9.39 5.49l.76.74-.3 1.03-1.05.29-.76-.74.3-1.03zm.12-.76a.4.4 0 0 0-.1 0l-1.46.41a.37.37 0 0 0-.26.26l-.4 1.43c-.04.12 0 .26.08.35l1.06 1.03a.36.36 0 0 0 .35.09l1.46-.4a.38.38 0 0 0 .27-.26l.4-1.43a.35.35 0 0 0-.09-.35l-1.05-1.03a.36.36 0 0 0-.26-.1zm5.87-.66c.31.33.67.57 1.06.68.37.1.74.12 1.1.12l.53-.01.78-.02c.22 0 .43 0 .61.04.36.06.6.18.8.47v1.17c0 1.74-1.42 3.13-3.17 3.13a3.13 3.13 0 0 1-3.17-3.13v-1.26c.1-.04.18-.1.28-.15a4.9 4.9 0 0 0 1.15-1l.03-.04zm8.38 1.5a.36.36 0 0 0-.1.3l.16 1.5c.02.17.16.3.33.32l1.53.17h.04c.1 0 .2-.04.26-.1l1.26-1.24c0 .58-.15 1.14-.58 1.56a2.3 2.3 0 0 1-2.54.47.37.37 0 0 0-.4.08l-2.86 2.8-.87-.5v-.31l2.88-2.82c.1-.1.14-.27.08-.4a2.2 2.2 0 0 1 .47-2.49c.43-.42 1.01-.56 1.6-.57zm-14.66-1.31c.59 0 1.18.22 1.63.66.67.66.86 1.66.48 2.5-.06.14-.03.3.08.4l2.83 2.79v.33l-.61.34a.37.37 0 0 0-.14.08l-.12.07-2.82-2.77a.37.37 0 0 0-.4-.07 2.34 2.34 0 0 1-2.56-.47c-.9-.89-.9-2.31 0-3.2a2.33 2.33 0 0 1 1.63-.66zm5.76 5.42a3.91 3.91 0 0 0 4.4.04v.65c0 .23-.17.48-.57.7-.4.23-.98.38-1.63.38-.65 0-1.24-.15-1.63-.37-.4-.23-.57-.48-.57-.7zm4.56 1.77l.6.33-1.2 4.7h-3.58l-1.2-4.67.65-.36c.12.1.24.18.37.25.54.3 1.23.47 2 .47.76 0 1.46-.17 2-.47.13-.07.25-.16.36-.25zm-5.37 5.75c-.2 0-.37.16-.37.36 0 .2.17.36.37.36.2 0 .37-.17.37-.36 0-.2-.17-.36-.37-.36zm5.96 0c-.2 0-.37.16-.37.36 0 .2.17.36.37.36.2 0 .37-.17.37-.36 0-.2-.17-.36-.37-.36zm-6.63-5.02l1.48 5.79c.05.41-.24.67-.66.67-.4 0-.71-.34-.82-.8v-.01l-1.26-4.94zm7.3-.03l1.27.71-1.27 4.97v.01c-.1.46-.4.8-.82.8-.42 0-.7-.26-.66-.67zm-9.22 1.1l.82 3.23h-.72c-.2 0-.37.16-.37.36v4.67h-2.2v-5.37c0-.93.51-1.8 1.35-2.26zm10.73 3.95v4.31h-10.27v-4.31h.54l.2.8c.16.7.73 1.35 1.54 1.35.8 0 1.5-.65 1.39-1.48v-.04l-.17-.63h3.22l-.16.63v.04c-.11.83.59 1.48 1.38 1.48.82 0 1.38-.65 1.54-1.35l.2-.8zm.42-3.97l1.17.65a2.59 2.59 0 0 1 1.35 2.26v5.37h-2.2v-4.67c0-.2-.17-.36-.37-.36h-.78zm-4.3-14l-.02.33c-.02.16-.1.28-.25.39-.16.1-.39.18-.6.2h-1.93a2.31 2.31 0 0 0-2.33 2.29v4.08c0 .95.37 1.81.94 2.48v.6l-2.2-2.17a2.9 2.9 0 0 0-2.82-3.89c-.78 0-1.56.3-2.15.87a2.94 2.94 0 0 0 0 4.22c.56.54 1.3.8 2.05.8.34 0 .69-.05 1.02-.15l2.57 2.52-2.62 1.46a3.31 3.31 0 0 0-1.71 2.88v6.09h17.6v-6.09c0-1.19-.66-2.29-1.72-2.88l-2.62-1.47 2.6-2.55c.33.1.67.16 1.01.16a2.9 2.9 0 0 0 2.78-3.81.36.36 0 0 0-.35-.25c-.1 0-.19.03-.26.1l-1.71 1.69-1.07-.12-.12-1.05 1.72-1.68c.09-.09.12-.21.1-.34a.36.36 0 0 0-.25-.25 3.07 3.07 0 0 0-1.64-.07 2.88 2.88 0 0 0-2.1 3.77l-2.24 2.21v-.53c.61-.68 1-1.57 1-2.55v-2.32-.02-2.56l-.01-.02a3.09 3.09 0 0 0-.67-1.67c-.39-.43-.96-.7-1.65-.7h-.01z"/></defs><g><g transform="translate(-1116 -3283)"><use fill="#fff" xlink:href="#j150a"/></g></g></svg>