<svg xmlns="http://www.w3.org/2000/svg" xmlns:xlink="http://www.w3.org/1999/xlink" width="17" height="17" viewBox="0 0 17 17"><defs><path id="f9fua" d="M370.5 6247.72a.28.28 0 1 0 0 .56c1.22 0 2.22 1 2.22 2.22a.28.28 0 0 0 .56 0 2.78 2.78 0 0 0-2.78-2.78zm0-2.86a.28.28 0 0 0 0 .57c2.8 0 5.08 2.27 5.08 5.07a.28.28 0 0 0 .56 0 5.64 5.64 0 0 0-5.64-5.64zm0-2.86a.28.28 0 0 0 0 .57 7.93 7.93 0 0 1 7.93 7.93.28.28 0 0 0 .57 0c0-4.7-3.8-8.5-8.5-8.5zm-5.75 3.4c.3 0 .59.12.81.34l1.52 1.52c.45.45.45 1.17 0 1.62l-.5.5c-.11.1-.12.27-.03.38 1.38 1.68 3 3.31 4.69 4.69a.28.28 0 0 0 .38-.02l.5-.5a1.14 1.14 0 0 1 1.62 0l1.52 1.5c.44.46.44 1.18 0 1.63l-.83.83a1.85 1.85 0 0 1-2.35.23 32.96 32.96 0 0 1-9.2-9.2c-.5-.74-.4-1.72.23-2.35l.83-.83c.23-.22.52-.33.81-.33zm0-.56c-.44 0-.87.17-1.2.5l-.84.83c-.82.82-.94 2.1-.3 3.06a33.5 33.5 0 0 0 9.36 9.37 2.42 2.42 0 0 0 3.06-.31l.83-.83c.67-.67.67-1.75 0-2.42l-1.52-1.52a1.7 1.7 0 0 0-2.42 0l-.32.32a33.69 33.69 0 0 1-4.24-4.24l.32-.32c.67-.67.67-1.75 0-2.42l-1.52-1.52a1.7 1.7 0 0 0-1.2-.5z"/></defs><g><g transform="translate(-362 -6242)"><use fill="#0b52ce" xlink:href="#f9fua"/></g></g></svg>