<svg xmlns="http://www.w3.org/2000/svg" xmlns:xlink="http://www.w3.org/1999/xlink" width="13" height="18" viewBox="0 0 13 18"><defs><path id="jaoia" d="M368.5 6282.8c.98 0 1.77.8 1.77 1.8s-.8 1.8-1.77 1.8c-.98 0-1.77-.8-1.77-1.8s.8-1.8 1.77-1.8zm0-.6a2.39 2.39 0 0 0-2.36 2.4c0 1.32 1.06 2.4 2.36 2.4 1.3 0 2.36-1.08 2.36-2.4 0-1.32-1.06-2.4-2.36-2.4zm0-3.6c3.26 0 5.9 2.7 5.9 6 0 3.86-4.82 9.45-5.9 10.66-1.08-1.2-5.9-6.8-5.9-10.66 0-3.3 2.64-6 5.9-6zm0-.6a6.56 6.56 0 0 0-6.5 6.6c0 4.57 6.03 11.03 6.29 11.3a.3.3 0 0 0 .42 0c.26-.27 6.29-6.73 6.29-11.3 0-3.64-2.92-6.6-6.5-6.6z"/></defs><g><g transform="translate(-362 -6278)"><use fill="#0b52ce" xlink:href="#jaoia"/></g></g></svg>