<svg xmlns="http://www.w3.org/2000/svg" xmlns:xlink="http://www.w3.org/1999/xlink" width="38" height="41" viewBox="0 0 38 41"><defs><path id="ep5ea" d="M381.98 327.38c.72.05 1.28.25 1.67.7.44.51.73 1.3.86 2.28v4.43a.53.53 0 0 0 0 .03.87.87 0 0 0 0 .04v.37c-.36-.2-.74-.35-1.13-.42-.43-.08-.86-.1-1.3-.1-.46 0-.93.02-1.39.04l-.83.02c-.58 0-1.12-.04-1.6-.17-.69-.19-1.24-.54-1.7-1.34a.63.63 0 0 0-.54-.31h-.04a.64.64 0 0 0-.58.46s-.12.24-.32.46a8.6 8.6 0 0 1-1.5 1.38v-.4a.46.46 0 0 0 0-.03.84.84 0 0 0 0-.03v-3.07a2.76 2.76 0 0 1 2.75-2.81h3.42a3.26 3.26 0 0 0 1.67-.58c.29-.2.38-.62.56-.95zm-16.23 9.78l1.31 1.32-.5 1.84-1.82.51-1.31-1.33.5-1.83zm.22-1.36h-.02c-.05 0-.1 0-.16.02l-2.52.71a.66.66 0 0 0-.46.46l-.7 2.56c-.06.22 0 .45.16.61l1.82 1.85a.61.61 0 0 0 .6.15l2.53-.7a.66.66 0 0 0 .46-.47l.7-2.55a.64.64 0 0 0-.16-.62l-1.82-1.84a.61.61 0 0 0-.43-.18zm10.13-1.17a4.08 4.08 0 0 0 1.83 1.2c.63.18 1.28.23 1.9.23.31 0 .62-.01.92-.03.46-.02.92-.04 1.34-.04.39 0 .75.02 1.06.08.61.11 1.03.33 1.36.84V339a5.5 5.5 0 0 1-5.47 5.57 5.5 5.5 0 0 1-5.47-5.57v-2.24c.17-.08.32-.18.5-.28a9.66 9.66 0 0 0 1.99-1.77l.04-.08zm14.47 2.68a.64.64 0 0 0-.18.53l.29 2.68c.03.3.26.53.56.56l2.65.3h.07c.17 0 .33-.06.45-.18l2.18-2.2a3.9 3.9 0 0 1-1.01 2.78 3.92 3.92 0 0 1-4.38.84.62.62 0 0 0-.7.13l-4.93 4.99-1.5-.87v-.57l4.97-5.03a.65.65 0 0 0 .13-.71 4.02 4.02 0 0 1 .82-4.43 3.8 3.8 0 0 1 2.76-1.02zm-25.32-2.35a4.06 4.06 0 0 1 3.65 5.65c-.11.25-.06.53.13.71l4.9 4.96v.6l-1.06.6a.63.63 0 0 0-.24.14l-.21.12-4.88-4.92a.63.63 0 0 0-.7-.14 3.94 3.94 0 0 1-4.41-.84 4.05 4.05 0 0 1 2.82-6.88zm9.95 9.66a6.61 6.61 0 0 0 7.6.08v1.16c0 .4-.3.86-.98 1.26-.68.4-1.7.66-2.82.66a5.81 5.81 0 0 1-2.82-.66c-.69-.4-.98-.85-.98-1.26zm7.88 3.16l1.04.6-2.07 8.37h-6.2l-2.06-8.32 1.12-.65c.2.17.41.32.64.45.92.53 2.12.83 3.45.83 1.32 0 2.52-.3 3.45-.83.22-.13.44-.28.63-.45zm-9.28 10.25a.64.64 0 0 0-.63.64c0 .35.28.64.63.64s.64-.29.64-.64a.64.64 0 0 0-.64-.64zm10.3 0a.64.64 0 0 0-.64.64c0 .35.29.64.64.64.35 0 .63-.29.63-.64a.64.64 0 0 0-.63-.64zm-11.45-8.94l2.55 10.3c.08.75-.42 1.2-1.14 1.2-.7 0-1.23-.59-1.41-1.41v-.02l-2.18-8.82zm12.61-.05l2.18 1.26-2.19 8.86v.02c-.18.82-.7 1.41-1.4 1.41-.73 0-1.24-.45-1.15-1.2zM369.32 351l1.42 5.74h-1.24a.64.64 0 0 0-.64.64v8.33h-3.8v-9.57c0-1.66.89-3.2 2.33-4.03zm18.54 7.02v7.69h-17.73v-7.69h.93l.35 1.42c.27 1.25 1.24 2.42 2.65 2.42a2.39 2.39 0 0 0 2.39-2.72l-.28-1.12h5.56l-.28 1.13v.07a2.39 2.39 0 0 0 2.4 2.65c1.4 0 2.36-1.17 2.64-2.43l.35-1.42zm.73-7.07l2.02 1.16a4.64 4.64 0 0 1 2.32 4.03v9.57h-3.8v-8.33a.64.64 0 0 0-.63-.64h-1.34zM381.15 326l-.03.6c-.02.28-.16.49-.43.68-.27.2-.67.32-1.02.35h-3.34a4.06 4.06 0 0 0-4.02 4.09v3.07a3.2 3.2 0 0 0 0 .07V339c0 1.7.62 3.22 1.62 4.42v1.05l-3.82-3.86c.6-1.88.25-3.95-1.15-5.37a5.2 5.2 0 0 0-7.43 0 5.36 5.36 0 0 0 0 7.51 4.93 4.93 0 0 0 3.55 1.45c.59 0 1.18-.1 1.76-.29l4.44 4.5-4.52 2.6a5.93 5.93 0 0 0-2.96 5.14V367h30.4v-10.85a5.93 5.93 0 0 0-2.96-5.14l-4.53-2.61 4.49-4.55c.57.18 1.16.28 1.74.28a4.9 4.9 0 0 0 3.53-1.44 5.32 5.32 0 0 0 1.28-5.36.64.64 0 0 0-.6-.44.63.63 0 0 0-.46.19l-2.96 3-1.85-.21-.2-1.87 2.96-3a.65.65 0 0 0-.25-1.06 5.15 5.15 0 0 0-2.83-.1 5.2 5.2 0 0 0-2.47 1.39 5.25 5.25 0 0 0-1.14 5.33l-3.89 3.93v-.96a6.87 6.87 0 0 0 1.72-4.53v-4.14a2.3 2.3 0 0 0 0-.06v-4.58a5.6 5.6 0 0 0-1.17-2.97 3.64 3.64 0 0 0-2.84-1.24h-.02V326z"/></defs><g><g transform="translate(-360 -326)"><use fill="#0b52ce" xlink:href="#ep5ea"/></g></g></svg>