<svg xmlns="http://www.w3.org/2000/svg" width="32.969" height="23" viewBox="0 0 32.969 23">
  <metadata><?xpacket begin="﻿" id="W5M0MpCehiHzreSzNTczkc9d"?>
<x:xmpmeta xmlns:x="adobe:ns:meta/" x:xmptk="Adobe XMP Core 5.6-c138 79.159824, 2016/09/14-01:09:01        ">
   <rdf:RDF xmlns:rdf="http://www.w3.org/1999/02/22-rdf-syntax-ns#">
      <rdf:Description rdf:about=""/>
   </rdf:RDF>
</x:xmpmeta>
<?xpacket end="w"?></metadata>
<defs>
    <style>
      .cls-1 {
        fill: #fff;
        stroke: #009cff;
        stroke-width: 0px;
        fill-rule: evenodd;
      }
    </style>
  </defs>
  <path id="Фигура_1" data-name="Фигура 1" class="cls-1" d="M34.654,9a1.363,1.363,0,0,0-.951.382L14.666,27.863,6.3,19.8a1.376,1.376,0,0,0-1.9,0,1.273,1.273,0,0,0,0,1.841l9.325,8.983a1.39,1.39,0,0,0,1.9,0l19.983-19.4a1.271,1.271,0,0,0,0-1.841h0l0.152,0.146-0.3-.294h0l0.151,0.147A1.363,1.363,0,0,0,34.654,9Z" transform="translate(-3.531 -8.5)"/>
</svg>
