<svg xmlns="http://www.w3.org/2000/svg" xmlns:xlink="http://www.w3.org/1999/xlink" width="12" height="13" viewBox="0 0 12 13"><defs><path id="t3vea" d="M1366.1 23c-.07 0-.13 0-.2.02-.12.02-.23.07-.34.14-.32.2-1.1.74-1.46 1.46-.22.44-.33 4.5 2.72 7.93a9.79 9.79 0 0 0 6.9 3.45 2 2 0 0 0 .36-.02h.02l.05-.02a4.22 4.22 0 0 0 1.62-1.28c.45-.55.13-1.2-.04-1.55l-.07-.14c-.2-.48-2.68-1.2-2.88-1.22l-.17.01c-.34.07-.7.4-1.5 1.09-.87-.41-2.08-1.5-2.65-2.14a8.98 8.98 0 0 1-1.66-2.73c.9-.8 1.27-1.14 1.29-1.52.01-.2-.41-2.75-.86-3.01l-.14-.09c-.24-.15-.6-.38-.99-.38z"/></defs><g><g transform="translate(-1364 -23)"><use fill="#292a2d" xlink:href="#t3vea"/></g></g></svg>