<svg xmlns="http://www.w3.org/2000/svg" xmlns:xlink="http://www.w3.org/1999/xlink" width="129" height="129" viewBox="0 0 129 129"><defs><path id="lea6a" d="M639.09 5752.33c-1.81 0-2.9 1.65-2.9 4.58v40.8c0 3.26 1.29 4.58 3.04 4.58.97 0 2.07-.4 3.17-1.09l17.48-10.1 17.88-10.1c3.5-1.95 3.1-5.44 0-7.39l-17.88-10.1-17.87-10.1a5.47 5.47 0 0 0-2.92-1.08zm13.41-34.67c16.32 0 31.47 6.6 42.35 17.49 10.5 10.88 17.49 25.64 17.49 42.35 0 16.32-7 31.47-17.49 42.35-10.88 10.5-26.03 17.49-42.35 17.49-16.7 0-31.47-7-42.35-17.49a59.95 59.95 0 0 1-17.49-42.35c0-16.7 6.6-31.47 17.49-42.35a59.27 59.27 0 0 1 42.35-17.49zm0-4.66c-17.87 0-33.8 7.38-45.46 19.04-11.66 11.66-19.04 27.59-19.04 45.46s7.38 33.8 19.04 45.46c11.66 11.66 27.59 19.04 45.46 19.04s33.8-7.38 45.46-19.04c11.66-11.66 19.04-27.59 19.04-45.46s-7.38-33.8-19.04-45.46c-11.66-11.66-27.59-19.04-45.46-19.04z"/></defs><g><g transform="translate(-588 -5713)"><use fill="#fff" xlink:href="#lea6a"/></g></g></svg>