<svg xmlns="http://www.w3.org/2000/svg" xmlns:xlink="http://www.w3.org/1999/xlink" width="13" height="13" viewBox="0 0 13 13"><defs><path id="y1hoa" d="M1374.5 570.81a2.64 2.64 0 1 1 0 5.29 2.64 2.64 0 0 1 0-5.29zm0 6.45c3 0 5.46 2.17 5.69 4.93h-11.38c.24-2.76 2.7-4.93 5.7-4.93zm0-7.26a3.46 3.46 0 0 0-1.43 6.6 6.33 6.33 0 0 0-5.07 5.52.81.81 0 0 0 .81.88h11.38a.81.81 0 0 0 .8-.88 6.32 6.32 0 0 0-5.06-5.52 3.46 3.46 0 0 0-1.43-6.6z"/></defs><g><g transform="translate(-1368 -570)"><use fill="#fff" xlink:href="#y1hoa"/></g></g></svg>