<svg xmlns="http://www.w3.org/2000/svg" xmlns:xlink="http://www.w3.org/1999/xlink" width="25" height="25" viewBox="0 0 25 25"><defs><path id="mes3a" d="M598.5 6675.04c.6 0 .83.17.83.68v4.26c0 .16.06.3.15.41.18.25.5.4.85.4.31 0 .65-.12.92-.39l.21-.27.35-.48a16.1 16.1 0 0 0 1.88-3.2l.1-.34.07-.1.27-.2.1-.04h2.91l.02.12.02.15-.06.23c-.4 1.38-2.06 3.05-2.83 4.21-.37.51-.44 1.12.01 1.68l2.68 3.35.07.12c.03.1 0 .15-.03.18-.08.07-.26.16-.52.16H603.45c-.08 0-.18-.04-.32-.24l-1.57-2c-.22-.26-.49-.48-.8-.52h-.1a.7.7 0 0 0-.49.2.98.98 0 0 0-.25.4v.04l-.37 1.61v.06c-.02.18-.07.45-.3.45h-1.83c-2.4 0-4.95-3.41-6.97-8.64l-.38-1.04-.03-.18c-.02-.18 0-.26.01-.29 0 0 .03-.06.27-.06l2.47.01.16.5c.6 1.7 1.33 2.87 2.15 4.14l.08.13c.2.27.48.4.76.4.53 0 1.06-.42 1.11-1.08v-3.25c0-.7-.34-1.04-.72-1.21l-.1-.04.13-.08c.24-.12.58-.21 1.09-.21zm0-.78l-1.06.03c-1.14 0-1.97.4-2.22 1.2-.07.23.08.47.32.5.52.08.73.15.73.62v3.2l-.06.2c-.06.1-.16.15-.24.15-.07 0-.14-.04-.19-.14l-.02-.04a16.66 16.66 0 0 1-2.32-4.71.39.39 0 0 0-.37-.28l-2.76-.02c-.38.02-.75.13-.94.48-.17.3-.13.68-.07 1.02l.02.05c2.02 5.68 4.9 10.23 8.1 10.23h1.8l.27-.02c.45-.09.66-.43.76-.77l.06-.33.36-1.58.02-.05.06.03.2.2 1.55 1.97.19.22a1.05 1.05 0 0 0 .86.33h-.02 2.88l.3-.01c.34-.04.66-.17.87-.4.33-.35.35-.83.04-1.28l-2.7-3.39c-.2-.24-.2-.45 0-.74.83-1.23 2.77-3.12 3.04-4.8v-.13c-.02-.11 0-.4-.16-.65a.73.73 0 0 0-.37-.3.92.92 0 0 0-.2-.05H604.18a.53.53 0 0 0-.17.02c-.21.06-.74.35-.94.76a.4.4 0 0 0-.03.1c-.15.84-1.26 2.46-2.21 3.8-.16.25-.35.32-.49.32a.47.47 0 0 1-.15-.03l-.07-.04v-4.21c0-1.1-.78-1.46-1.63-1.46zm10.22-5.48c.82 0 1.5.68 1.5 1.5v20.44c0 .82-.68 1.5-1.5 1.5h-20.44a1.5 1.5 0 0 1-1.5-1.5v-20.44c0-.82.68-1.5 1.5-1.5zm-20.44-.78a2.28 2.28 0 0 0-2.28 2.28v20.44a2.28 2.28 0 0 0 2.28 2.28h20.44a2.28 2.28 0 0 0 2.28-2.28v-20.44a2.29 2.29 0 0 0-2.28-2.28z"/></defs><g><g transform="translate(-586 -6668)"><use fill="#fff" xlink:href="#mes3a"/></g></g></svg>